# xmcd CD database file
# Copyright (C) 1993-1998 Ti Kan
# 
# Track frame offsets:
#     183
#     13830
#     27193
#     39018
#     52030
#     64205
#     76328
#     87198
#     97940
#     110303
#     127018
#     139508
#     150303
#     162228
#     175315
#     186748
#     197840
#     208918
# 
# Disc length: 2927 seconds
# 
# Revision: 1
# Processed by: cddbd v1.4b41PL1 Copyright (c) Steve Scherf et al.
# Submitted via: DiscPlay 4.0.4
# 
DISCID=f00b6d12
DTITLE=Champion Jack Dupree - Champion Jack Dupree 1940-1950
DYEAR=1900
DGENRE=
TTITLE0=New Low Down Dog
TTITLE1=My Cabin Inn
TTITLE2=That's All Right
TTITLE3=Gibing Blues
TTITLE4=My Baby's Gone
TTITLE5=Black Cow Blues
TTITLE6=Slow Boogie
TTITLE7=Jitterbug
TTITLE8=Mexican Reminescences
TTITLE9=Too Evil To Cry
TTITLE10=Going Down Slow
TTITLE11=Hard Feeling
TTITLE12=How Long, How Long Blues
TTITLE13=Mean Old Frisco
TTITLE14=Bad Whiskey And Wild Women
TTITLE15=Bus Station Blues
TTITLE16=Goin' Back To Louisiana
TTITLE17=Barrelhouse Mama
EXTD=
EXTT0=
EXTT1=
EXTT2=
EXTT3=
EXTT4=
EXTT5=
EXTT6=
EXTT7=
EXTT8=\n
EXTT9=
EXTT10=
EXTT11=
EXTT12=
EXTT13=
EXTT14=
EXTT15=
EXTT16=
EXTT17=
PLAYORDER=
